<mxfile host="app.diagrams.net" modified="2021-03-03T03:06:32.757Z" agent="5.0 (Macintosh; Intel Mac OS X 10_15_7) AppleWebKit/537.36 (KHTML, like Gecko) Chrome/88.0.4324.192 Safari/537.36" etag="Yvg3dBUPDRTPvmV83Qc6" version="14.4.3" type="github">
  <diagram id="w_9FR9Beiynvzyc7NcYQ" name="第 1 页">
    <mxGraphModel dx="939" dy="510" grid="1" gridSize="10" guides="1" tooltips="1" connect="1" arrows="1" fold="1" page="1" pageScale="1" pageWidth="3300" pageHeight="4681" math="0" shadow="0">
      <root>
        <mxCell id="0" />
        <mxCell id="1" parent="0" />
        <mxCell id="vXOPwWMgBig0Ylkqw-jI-1" value="NODE1" style="rounded=0;whiteSpace=wrap;html=1;fillColor=#fff2cc;strokeColor=#d6b656;" vertex="1" parent="1">
          <mxGeometry x="150" y="330" width="410" height="580" as="geometry" />
        </mxCell>
        <mxCell id="vXOPwWMgBig0Ylkqw-jI-6" style="rounded=0;orthogonalLoop=1;jettySize=auto;html=1;entryX=0.5;entryY=0;entryDx=0;entryDy=0;" edge="1" parent="1" source="vXOPwWMgBig0Ylkqw-jI-3" target="vXOPwWMgBig0Ylkqw-jI-4">
          <mxGeometry relative="1" as="geometry" />
        </mxCell>
        <mxCell id="vXOPwWMgBig0Ylkqw-jI-7" style="edgeStyle=none;rounded=0;orthogonalLoop=1;jettySize=auto;html=1;exitX=0.5;exitY=1;exitDx=0;exitDy=0;" edge="1" parent="1" source="vXOPwWMgBig0Ylkqw-jI-3" target="vXOPwWMgBig0Ylkqw-jI-5">
          <mxGeometry relative="1" as="geometry" />
        </mxCell>
        <mxCell id="vXOPwWMgBig0Ylkqw-jI-9" style="edgeStyle=none;rounded=0;orthogonalLoop=1;jettySize=auto;html=1;entryX=0.5;entryY=0;entryDx=0;entryDy=0;" edge="1" parent="1" source="vXOPwWMgBig0Ylkqw-jI-3" target="vXOPwWMgBig0Ylkqw-jI-8">
          <mxGeometry relative="1" as="geometry" />
        </mxCell>
        <mxCell id="vXOPwWMgBig0Ylkqw-jI-3" value="serviceA" style="rounded=0;whiteSpace=wrap;html=1;" vertex="1" parent="1">
          <mxGeometry x="236" y="630" width="120" height="60" as="geometry" />
        </mxCell>
        <mxCell id="vXOPwWMgBig0Ylkqw-jI-4" value="pod" style="rounded=0;whiteSpace=wrap;html=1;" vertex="1" parent="1">
          <mxGeometry x="190" y="820" width="50" height="50" as="geometry" />
        </mxCell>
        <mxCell id="vXOPwWMgBig0Ylkqw-jI-5" value="pod" style="rounded=0;whiteSpace=wrap;html=1;" vertex="1" parent="1">
          <mxGeometry x="270" y="820" width="50" height="50" as="geometry" />
        </mxCell>
        <mxCell id="vXOPwWMgBig0Ylkqw-jI-8" value="pod" style="rounded=0;whiteSpace=wrap;html=1;" vertex="1" parent="1">
          <mxGeometry x="350" y="820" width="50" height="50" as="geometry" />
        </mxCell>
        <mxCell id="vXOPwWMgBig0Ylkqw-jI-12" style="edgeStyle=none;rounded=0;orthogonalLoop=1;jettySize=auto;html=1;exitX=0.5;exitY=1;exitDx=0;exitDy=0;entryX=0.5;entryY=0;entryDx=0;entryDy=0;" edge="1" parent="1" source="vXOPwWMgBig0Ylkqw-jI-10" target="vXOPwWMgBig0Ylkqw-jI-3">
          <mxGeometry relative="1" as="geometry" />
        </mxCell>
        <mxCell id="vXOPwWMgBig0Ylkqw-jI-14" value="/path-a" style="edgeLabel;html=1;align=center;verticalAlign=middle;resizable=0;points=[];" vertex="1" connectable="0" parent="vXOPwWMgBig0Ylkqw-jI-12">
          <mxGeometry x="-0.0531" y="-3" relative="1" as="geometry">
            <mxPoint as="offset" />
          </mxGeometry>
        </mxCell>
        <mxCell id="vXOPwWMgBig0Ylkqw-jI-13" style="edgeStyle=none;rounded=0;orthogonalLoop=1;jettySize=auto;html=1;exitX=0.5;exitY=1;exitDx=0;exitDy=0;entryX=0.5;entryY=0;entryDx=0;entryDy=0;" edge="1" parent="1" source="vXOPwWMgBig0Ylkqw-jI-10" target="vXOPwWMgBig0Ylkqw-jI-11">
          <mxGeometry relative="1" as="geometry" />
        </mxCell>
        <mxCell id="vXOPwWMgBig0Ylkqw-jI-15" value="/path-b" style="edgeLabel;html=1;align=center;verticalAlign=middle;resizable=0;points=[];" vertex="1" connectable="0" parent="vXOPwWMgBig0Ylkqw-jI-13">
          <mxGeometry x="-0.0711" y="1" relative="1" as="geometry">
            <mxPoint x="1" as="offset" />
          </mxGeometry>
        </mxCell>
        <mxCell id="vXOPwWMgBig0Ylkqw-jI-10" value="ingress" style="rounded=0;whiteSpace=wrap;html=1;" vertex="1" parent="1">
          <mxGeometry x="310" y="390" width="120" height="60" as="geometry" />
        </mxCell>
        <mxCell id="vXOPwWMgBig0Ylkqw-jI-11" value="serviceB" style="rounded=0;whiteSpace=wrap;html=1;" vertex="1" parent="1">
          <mxGeometry x="400" y="630" width="120" height="60" as="geometry" />
        </mxCell>
        <mxCell id="vXOPwWMgBig0Ylkqw-jI-17" style="edgeStyle=none;rounded=0;orthogonalLoop=1;jettySize=auto;html=1;exitX=0.5;exitY=1;exitDx=0;exitDy=0;entryX=0.5;entryY=0;entryDx=0;entryDy=0;" edge="1" parent="1" source="vXOPwWMgBig0Ylkqw-jI-16" target="vXOPwWMgBig0Ylkqw-jI-10">
          <mxGeometry relative="1" as="geometry" />
        </mxCell>
        <mxCell id="vXOPwWMgBig0Ylkqw-jI-16" value="LB&lt;br&gt;Ingress 由于在多个node上，会有很多ip，所以要抽象出一个固定 &lt;br&gt;lb的 id" style="whiteSpace=wrap;html=1;" vertex="1" parent="1">
          <mxGeometry x="550" y="160" width="130" height="110" as="geometry" />
        </mxCell>
      </root>
    </mxGraphModel>
  </diagram>
</mxfile>
